<?xml version="1.0" encoding="UTF-8" standalone="no"?>
<svg
   xmlns:dc="http://purl.org/dc/elements/1.1/"
   xmlns:cc="http://creativecommons.org/ns#"
   xmlns:rdf="http://www.w3.org/1999/02/22-rdf-syntax-ns#"
   xmlns:svg="http://www.w3.org/2000/svg"
   xmlns="http://www.w3.org/2000/svg"
   viewBox="0 0 577.33331 140"
   height="140"
   width="577.33331"
   xml:space="preserve"
   id="svg2"
   version="1.1"><metadata
     id="metadata8"><rdf:RDF><cc:Work
         rdf:about=""><dc:format>image/svg+xml</dc:format><dc:type
           rdf:resource="http://purl.org/dc/dcmitype/StillImage" /></cc:Work></rdf:RDF></metadata><defs
     id="defs6" /><g
     transform="matrix(1.3333333,0,0,-1.3333333,0,140)"
     id="g10"><g
       transform="scale(0.1)"
       id="g12"><path
         id="path14"
         style="fill:#00a68f;fill-opacity:1;fill-rule:evenodd;stroke:none"
         d="M 0,63.1992 544.879,320.82 218.59,609.18 335.16,376.02 0,63.1992" /><path
         id="path16"
         style="fill:#0075bf;fill-opacity:1;fill-rule:evenodd;stroke:none"
         d="M 436.68,517.07 146.762,745.551 505.391,683.59 842.621,913.672 436.68,517.07" /><path
         id="path18"
         style="fill:#e31921;fill-opacity:1;fill-rule:evenodd;stroke:none"
         d="M 738.52,735.121 1049.26,1050 984.691,790.309 l 411.169,-68.2 -657.34,13.012" /><path
         id="path20"
         style="fill:#faa633;fill-opacity:1;fill-rule:evenodd;stroke:none"
         d="M 914.961,430.121 173.828,96.0195 733.871,253.672 921.762,0.738281 914.961,430.121" /><path
         id="path22"
         style="fill:#994c9c;fill-opacity:1;fill-rule:evenodd;stroke:none"
         d="m 990.941,660.699 -7.781,-471.008 86.92,326.829 480.39,145.75 -559.529,-1.571" /><path
         id="path24"
         style="fill:#0075bf;fill-opacity:1;fill-rule:evenodd;stroke:none"
         d="m 566.25,784.02 c -3.441,-38.821 -24.648,-60 -63.48,-63.469 -38.551,3.469 -59.68,24.648 -63.508,63.469 3.468,38.558 24.648,59.691 63.508,63.519 38.832,-3.828 60.039,-24.961 63.48,-63.519" /><path
         id="path26"
         style="fill:#e31921;fill-opacity:1;fill-rule:evenodd;stroke:none"
         d="m 1154.92,857.969 c -3.47,-38.867 -24.65,-60.039 -63.51,-63.52 -38.52,3.481 -59.65,24.653 -63.48,63.52 3.44,38.48 24.65,59.691 63.48,63.511 38.86,-3.511 60.04,-24.64 63.51,-63.511" /><path
         id="path28"
         style="fill:#994c9c;fill-opacity:1;fill-rule:evenodd;stroke:none"
         d="m 1207.46,434.301 c -3.48,-38.871 -24.61,-60 -63.48,-63.52 -38.51,3.52 -59.72,24.649 -63.47,63.52 3.44,38.508 24.57,59.679 63.47,63.469 38.87,-3.43 60,-24.61 63.48,-63.469" /><path
         id="path30"
         style="fill:#faa633;fill-opacity:1;fill-rule:evenodd;stroke:none"
         d="m 743.75,143.359 c -3.48,-38.871 -24.648,-60.0387 -63.52,-63.5192 -38.511,3.4805 -59.64,24.6482 -63.468,63.5192 3.828,38.52 24.957,59.653 63.468,63.481 38.872,-3.442 60.04,-24.649 63.52,-63.481" /><path
         id="path32"
         style="fill:#00a68f;fill-opacity:1;fill-rule:evenodd;stroke:none"
         d="m 280.512,393.672 c -3.442,-38.832 -24.614,-60 -63.524,-63.473 -38.468,3.473 -59.648,24.641 -63.437,63.473 3.437,38.558 24.609,59.687 63.437,63.519 38.91,-3.441 60.082,-24.652 63.524,-63.519" /><path
         id="path34"
         style="fill:#455560;fill-opacity:1;fill-rule:nonzero;stroke:none"
         d="m 1865.27,207.461 h -63.43 v 85.937 h -223.13 v -85.937 h -63.44 v 175 c 0,25.629 4.38,49.141 13.13,70.629 8.83,21.441 21.09,39.879 36.72,55.308 15.62,15.512 34.06,27.582 55.31,36.25 21.33,8.633 44.61,12.973 69.84,12.973 h 143.13 c 4.37,0 8.48,-0.859 12.34,-2.5 3.95,-1.68 7.38,-3.992 10.31,-6.883 2.9,-2.929 5.16,-6.359 6.72,-10.308 1.64,-3.871 2.5,-7.969 2.5,-12.34 z M 1578.71,356.84 h 223.13 v 137.18 h -111.57 c -1.99,0 -6.09,-0.309 -12.34,-0.93 -6.25,-0.551 -13.52,-1.961 -21.72,-4.219 -8.24,-2.191 -16.95,-5.711 -26.09,-10.473 -9.07,-4.687 -17.46,-11.207 -25.16,-19.527 -7.62,-8.25 -13.91,-18.601 -18.91,-31.101 -4.92,-12.418 -7.34,-27.5 -7.34,-45.309 z m 681.68,-149.379 h -289.53 c -4.61,0 -8.87,0.777 -12.81,2.34 -3.87,1.648 -7.27,3.91 -10.16,6.719 -2.81,2.89 -5.08,6.289 -6.72,10.16 -1.56,3.941 -2.34,8.199 -2.34,12.808 v 318.133 h 63.44 V 270.898 h 258.12 z" /><path
         id="path36"
         style="fill:#455560;fill-opacity:1;fill-rule:nonzero;stroke:none"
         d="m 2656.37,284.34 c 0,-7.82 -1.37,-16.219 -4.07,-25.16 -2.73,-8.981 -7.14,-17.301 -13.28,-25 -6.05,-7.621 -13.98,-13.981 -23.75,-19.059 -9.68,-5.121 -21.64,-7.66 -35.78,-7.66 h -240.94 c -4.6,0 -8.86,0.777 -12.81,2.34 -3.86,1.648 -7.26,3.91 -10.15,6.719 -2.82,2.89 -5.08,6.289 -6.72,10.16 -1.57,3.941 -2.35,8.199 -2.35,12.808 V 525.59 c 0,4.371 0.78,8.469 2.35,12.34 1.64,3.949 3.9,7.379 6.72,10.308 2.89,2.891 6.29,5.203 10.15,6.883 3.95,1.641 8.21,2.5 12.81,2.5 h 212.35 c 7.81,0 16.17,-1.41 25.15,-4.223 8.95,-2.738 17.27,-7.148 25,-13.277 7.7,-6.172 14.11,-14.141 19.22,-23.91 5.2,-9.691 7.82,-21.641 7.82,-35.781 v -12.032 c 0,-11.168 -1.88,-23.238 -5.63,-36.25 -3.75,-12.929 -9.8,-25.16 -18.12,-36.718 7.18,-4.379 13.9,-9.692 20.15,-15.942 6.25,-6.168 11.72,-13.277 16.41,-21.398 4.76,-8.129 8.51,-17.352 11.25,-27.66 2.81,-10.231 4.22,-21.52 4.22,-33.91 z m -63.44,12.18 c 0,8.32 -1.33,15.781 -3.91,22.351 -2.61,6.641 -6.32,12.34 -11.09,17.027 -4.69,4.692 -10.39,8.282 -17.03,10.782 -6.68,2.582 -14.18,3.91 -22.5,3.91 h -142.97 v 63.898 h 114.37 c 8.32,0 15.82,1.25 22.5,3.75 6.65,2.5 12.35,6.102 17.04,10.782 4.76,4.769 8.43,10.468 10.93,17.031 2.5,6.648 3.75,14.109 3.75,22.347 v 12.032 c 0,9.058 -4.37,13.59 -13.12,13.59 H 2369.96 V 270.898 h 209.53 c 1.13,0 2.5,0.043 4.06,0.153 1.65,0.199 3.13,0.711 4.38,1.57 1.33,0.82 2.5,2.219 3.44,4.219 1.01,1.949 1.56,4.609 1.56,7.961 z" /><path
         id="path38"
         style="fill:#455560;fill-opacity:1;fill-rule:nonzero;stroke:none"
         d="m 3054.73,207.461 h -63.44 v 85.937 h -223.13 v -85.937 h -63.43 v 175 c 0,25.629 4.37,49.141 13.12,70.629 8.83,21.441 21.1,39.879 36.72,55.308 15.63,15.512 34.06,27.582 55.31,36.25 21.33,8.633 44.61,12.973 69.85,12.973 h 143.12 c 4.38,0 8.48,-0.859 12.35,-2.5 3.94,-1.68 7.38,-3.992 10.31,-6.883 2.89,-2.929 5.15,-6.359 6.72,-10.308 1.64,-3.871 2.5,-7.969 2.5,-12.34 z M 2768.16,356.84 h 223.13 v 137.18 h -111.56 c -2,0 -6.1,-0.309 -12.35,-0.93 -6.25,-0.551 -13.51,-1.961 -21.72,-4.219 -8.24,-2.191 -16.95,-5.711 -26.09,-10.473 -9.06,-4.687 -17.46,-11.207 -25.16,-19.527 -7.61,-8.25 -13.9,-18.601 -18.9,-31.101 -4.92,-12.418 -7.35,-27.5 -7.35,-45.309 z" /><path
         id="path40"
         style="fill:#455560;fill-opacity:1;fill-rule:nonzero;stroke:none"
         d="m 3477.66,354.02 c 0,-21.36 -3.71,-41.008 -11.1,-58.899 -7.42,-17.93 -17.61,-33.359 -30.62,-46.25 -13.05,-12.93 -28.52,-23.09 -46.41,-30.473 -17.93,-7.308 -37.42,-10.937 -58.44,-10.937 h -171.25 c -4.61,0 -8.86,0.777 -12.81,2.34 -3.87,1.648 -7.26,3.91 -10.15,6.719 -2.82,2.89 -5.08,6.289 -6.72,10.16 -1.57,3.941 -2.35,8.199 -2.35,12.808 V 525.59 c 0,4.371 0.78,8.469 2.35,12.34 1.64,3.949 3.9,7.379 6.72,10.308 2.89,2.891 6.28,5.203 10.15,6.883 3.95,1.641 8.2,2.5 12.81,2.5 h 171.25 c 21.02,0 40.51,-3.711 58.44,-11.101 17.89,-7.301 33.36,-17.418 46.41,-30.309 13.01,-12.93 23.2,-28.402 30.62,-46.41 7.39,-18.039 11.1,-37.61 11.1,-58.75 z m -63.44,57.031 c 0,12.39 -2.03,23.679 -6.1,33.91 -3.98,10.309 -9.64,19.059 -17.03,26.25 -7.3,7.269 -16.05,12.891 -26.25,16.879 -10.11,3.941 -21.36,5.93 -33.75,5.93 H 3191.25 V 270.898 h 139.84 c 12.39,0 23.64,1.954 33.75,5.942 10.2,4.058 18.95,9.68 26.25,16.871 7.39,7.269 13.05,15.98 17.03,26.09 4.07,10.199 6.1,21.609 6.1,34.219 z" /><path
         id="path42"
         style="fill:#455560;fill-opacity:1;fill-rule:nonzero;stroke:none"
         d="m 3883.36,239.488 c 0,-4.609 -0.86,-8.867 -2.5,-12.808 -1.56,-3.871 -3.83,-7.27 -6.72,-10.16 -2.93,-2.809 -6.37,-5.071 -10.31,-6.719 -3.87,-1.563 -7.97,-2.34 -12.35,-2.34 h -143.12 c -13.56,0 -27.27,1.449 -41.09,4.379 -13.75,2.89 -27.15,7.379 -40.16,13.43 -12.93,6.14 -25.12,13.949 -36.56,23.441 -11.37,9.449 -21.33,20.668 -29.85,33.59 -8.55,12.898 -15.27,27.699 -20.15,44.379 -4.81,16.64 -7.19,35.23 -7.19,55.781 v 175.16 h 63.44 v -175.16 c 0,-17.93 2.42,-33.082 7.34,-45.473 5,-12.297 11.29,-22.609 18.91,-30.937 7.69,-8.242 16.09,-14.762 25.15,-19.531 9.14,-4.68 17.85,-8.2 26.1,-10.469 8.2,-2.301 15.47,-3.75 21.72,-4.371 6.25,-0.551 10.35,-0.782 12.34,-0.782 h 111.56 v 286.723 h 63.44 z" /><path
         id="path44"
         style="fill:#455560;fill-opacity:1;fill-rule:nonzero;stroke:none"
         d="m 4307.23,439.961 c 0,-14.609 -1.84,-27.582 -5.47,-38.91 -3.56,-11.36 -8.4,-21.403 -14.53,-30.153 -6.06,-8.668 -13.09,-16.097 -21.1,-22.347 -7.93,-6.172 -16.25,-11.25 -25,-15.313 -8.67,-3.976 -17.46,-6.828 -26.4,-8.59 -8.87,-1.796 -17.19,-2.66 -25,-2.66 l 132.65,-114.527 h -98.12 l -132.35,114.527 h -45.62 v 63.442 h 143.44 c 8,0.621 15.31,2.269 21.87,5 6.64,2.691 12.38,6.289 17.19,10.781 4.76,4.57 8.48,10.078 11.09,16.559 2.58,6.449 3.91,13.832 3.91,22.191 v 40 c 0,3.519 -0.47,6.25 -1.41,8.129 -0.86,1.871 -1.99,3.199 -3.43,4.058 -1.37,0.942 -2.82,1.442 -4.38,1.563 -1.56,0.199 -2.97,0.309 -4.22,0.309 H 4020.82 V 207.461 h -63.44 V 525.59 c 0,4.371 0.78,8.469 2.35,12.34 1.64,3.949 3.9,7.379 6.72,10.308 2.89,2.891 6.28,5.203 10.15,6.883 3.95,1.641 8.2,2.5 12.81,2.5 h 240.94 c 14.14,0 26.1,-2.621 35.78,-7.82 9.77,-5.11 17.7,-11.52 23.75,-19.211 6.14,-7.738 10.55,-16.059 13.28,-25 2.7,-8.988 4.07,-17.352 4.07,-25.16 z" /></g></g></svg>